<svg xmlns:svg="http://www.w3.org/2000/svg" xmlns="http://www.w3.org/2000/svg" xmlns:xlink="http://www.w3.org/1999/xlink" width="100" height="100" id="svg5217" version="1.1"><style>.s0{stop-color:#ff0000;stop-opacity:1;}.s1{stop-color:#ff0000;stop-opacity:0;}.s2{stop-color:#ffbc08;stop-opacity:1;}.s3{stop-color:#ffbc08;stop-opacity:0;}</style><defs id="defs5219"><linearGradient id="linearGradient3837"><stop offset="0" id="stop3839" style="stop-color:#ffffff;stop-opacity:1"/><stop offset="1" id="stop3841" style="stop-color:#ffffff;stop-opacity:0"/></linearGradient><linearGradient id="linearGradient5941"><stop offset="0" id="stop5943" style="stop-color:#ff7abe;stop-opacity:1"/><stop offset="1" id="stop5945" style="stop-color:#ff7abe;stop-opacity:0"/></linearGradient><linearGradient id="linearGradient5915"><stop offset="0" id="stop5917" class="s0"/><stop offset="1" id="stop5919" class="s1"/></linearGradient><linearGradient id="linearGradient5897"><stop offset="0" id="stop5899" class="s0"/><stop offset="1" id="stop5901" class="s1"/></linearGradient><linearGradient id="linearGradient5875"><stop offset="0" id="stop5877" class="s0"/><stop offset="1" id="stop5879" class="s1"/></linearGradient><linearGradient id="linearGradient5849"><stop offset="0" id="stop5851" class="s2"/><stop offset="1" id="stop5853" class="s3"/></linearGradient><linearGradient id="linearGradient5839"><stop offset="0" id="stop5841" class="s2"/><stop offset="1" id="stop5843" class="s3"/></linearGradient><linearGradient id="linearGradient5821"><stop offset="0" id="stop5823" class="s2"/><stop offset="1" id="stop5825" class="s3"/></linearGradient><linearGradient id="linearGradient5811"><stop offset="0" id="stop5813" class="s2"/><stop offset="1" id="stop5815" class="s3"/></linearGradient><linearGradient id="linearGradient5781"><stop offset="0" id="stop5783" style="stop-color:#ff7608;stop-opacity:1"/><stop offset="1" id="stop5785" style="stop-color:#ff7608;stop-opacity:0"/></linearGradient><linearGradient id="linearGradient5763"><stop offset="0" id="stop5765" class="s0"/><stop offset="1" id="stop5767" class="s1"/></linearGradient><linearGradient id="linearGradient5749"><stop offset="0" id="stop5751" class="s0"/><stop offset="1" id="stop5753" class="s1"/></linearGradient><linearGradient id="linearGradient5735"><stop offset="0" id="stop5737" class="s0"/><stop offset="1" id="stop5739" class="s1"/></linearGradient><radialGradient xlink:href="#linearGradient5735" id="radialGradient5741" cx="36.14" cy="225.07" fx="36.14" fy="225.07" r="58.09" gradientTransform="matrix(0.73230564,-0.01006623,0.01198363,2.0119931,6.9778012,-227.40638)" gradientUnits="userSpaceOnUse"/><radialGradient xlink:href="#linearGradient5749" id="radialGradient5755" cx="178.13" cy="637.48" fx="178.13" fy="637.48" r="166.51" gradientTransform="matrix(0.83895347,-0.03996247,0.01735359,0.39722743,17.624359,391.37096)" gradientUnits="userSpaceOnUse"/><radialGradient xlink:href="#linearGradient5763" id="radialGradient5769" cx="-181.35" cy="-98.91" fx="-181.35" fy="-98.91" r="127.14" gradientTransform="matrix(0.82455445,0.09806268,0.0457278,0.43631444,-27.2947,-37.972777)" gradientUnits="userSpaceOnUse"/><radialGradient xlink:href="#linearGradient5781" id="radialGradient5787" cx="-145.21" cy="-136.35" fx="-145.21" fy="-136.35" r="69.06" gradientTransform="matrix(0.83408138,0.00379156,-0.00403091,0.82984536,-24.643107,-22.649579)" gradientUnits="userSpaceOnUse"/><radialGradient xlink:href="#linearGradient5811" id="radialGradient5817" cx="14.84" cy="-124.09" fx="14.84" fy="-124.09" r="104.32" gradientTransform="matrix(0.81752269,-0.00775276,0.00382255,0.43950222,3.1830095,-69.434348)" gradientUnits="userSpaceOnUse"/><radialGradient xlink:href="#linearGradient5821" id="radialGradient5827" cx="89.06" cy="-126.67" fx="89.06" fy="-126.67" r="58.09" gradientTransform="matrix(1,0,0,0.62631818,0,-47.333034)" gradientUnits="userSpaceOnUse"/><radialGradient xlink:href="#linearGradient5839" id="radialGradient5845" cx="59.38" cy="-156.35" fx="59.38" fy="-156.35" r="58.47" gradientUnits="userSpaceOnUse" gradientTransform="matrix(0.75035238,-0.00313742,0.00286579,0.74731057,15.271127,-39.322871)"/><radialGradient xlink:href="#linearGradient5849" id="radialGradient5855" cx="284.62" cy="-22.11" fx="284.62" fy="-22.11" r="31.62" gradientTransform="matrix(0.99897007,0.04737929,-0.07673654,1.7641298,-1.403777,3.4126152)" gradientUnits="userSpaceOnUse"/><radialGradient xlink:href="#linearGradient5875" id="radialGradient5881" cx="280.74" cy="-94.4" fx="280.74" fy="-94.4" r="48.15" gradientTransform="matrix(0.59677317,0,-2.8338864e-8,1.477252,113.20379,45.051237)" gradientUnits="userSpaceOnUse"/><radialGradient xlink:href="#linearGradient5897" id="radialGradient5903" cx="-83.9" cy="-151.19" fx="-83.9" fy="-151.19" r="95.27" gradientTransform="matrix(0.68897158,-0.04249846,0.05032948,0.76018786,-18.486115,-39.823206)" gradientUnits="userSpaceOnUse"/><radialGradient xlink:href="#linearGradient5915" id="radialGradient5921" cx="-95.52" cy="-163.45" fx="-95.52" fy="-163.45" r="59.94" gradientTransform="matrix(0.78586669,-0.03619868,0.0326535,0.77294799,-15.116186,-40.570151)" gradientUnits="userSpaceOnUse"/><radialGradient xlink:href="#linearGradient5941" id="radialGradient5947" cx="318.18" cy="274.12" fx="318.18" fy="274.12" r="454.41" gradientTransform="matrix(0.67918324,-0.022544,0.01909332,0.56491703,96.842739,126.43818)" gradientUnits="userSpaceOnUse"/><radialGradient xlink:href="#linearGradient3837" id="radialGradient3843" cx="-84.55" cy="-162.81" fx="-84.55" fy="-162.81" r="29.04" gradientTransform="matrix(0.8897915,-0.03778125,0.03450229,0.8859807,-3.700433,-21.757577)" gradientUnits="userSpaceOnUse"/></defs><metadata id="metadata5222"/><g id="layer1" transform="translate(0,-380)"><path id="path5927" d="m653.13 274.12c0 158.62-149.97 287.2-334.96 287.2-184.99 0-334.96-128.58-334.96-287.2 0-158.62 149.97-287.2 334.96-287.2 184.99 0 334.96 128.58 334.96 287.2z" transform="matrix(0.17610172,0,0,0.17770108,7.5302593,373.44455)" style="fill:url(#radialGradient5947);opacity:0.3"/><path id="path5887" d="m-3.87-151.19c0 43.49-35.83 78.74-80.03 78.74-44.2 0-80.03-35.25-80.03-78.74 0-43.49 35.83-78.74 80.03-78.74 44.2 0 80.03 35.25 80.03 78.74z" transform="matrix(0.23097843,0,0,0.23929645,54.641165,440.69072)" style="fill:url(#radialGradient5903);opacity:0.3"/><path id="path5761" d="m-54.21-98.91c0 42.42-56.92 76.8-127.14 76.8-70.22 0-127.14-34.39-127.14-76.8 0-42.42 56.92-76.8 127.14-76.8 70.22 0 127.14 34.39 127.14 76.8z" transform="matrix(0.17610172,-0.10786628,0,0.16864808,81.860171,450.82828)" style="fill:url(#radialGradient5769);opacity:0.3"/><path id="path5733" d="m94.23 225.07c0 87.33-26.01 158.12-58.09 158.12-32.08 0-58.09-70.79-58.09-158.12 0-87.33 26.01-158.12 58.09-158.12 32.08 0 58.09 70.79 58.09 158.12z" transform="matrix(0.44025432,0,0,0.28979935,-6.2219095,350.60547)" style="fill:url(#radialGradient5741);opacity:0.3"/><path id="path5747" d="m344.64 637.48c0 46.34-74.55 83.9-166.51 83.9-91.96 0-166.51-37.56-166.51-83.9 0-46.34 74.55-83.9 166.51-83.9 91.96 0 166.51 37.56 166.51 83.9z" transform="matrix(0.17610172,0,0,0.16864808,1.8475436,354.14515)" style="fill:url(#radialGradient5755);opacity:0.3"/><path id="path5779" d="m-76.16-136.35c0 36-30.92 65.18-69.06 65.18-38.14 0-69.06-29.18-69.06-65.18 0-36 30.92-65.18 69.06-65.18 38.14 0 69.06 29.18 69.06 65.18z" transform="matrix(0.26168386,0,0,0.27050484,54.736096,495.92452)" style="fill:url(#radialGradient5787);opacity:0.3"/><path id="path5797" d="m105.84-124.09c0 26.38-40.74 47.76-91 47.76-50.26 0-91-21.38-91-47.76 0-26.38 40.74-47.76 91-47.76 50.26 0 91 21.38 91 47.76z" transform="matrix(0.17610172,0,0,0.16864808,67.539734,434.47187)" style="fill:url(#radialGradient5817);opacity:0.3"/><path id="path5819" d="m147.15-126.67c0 27.09-26.01 49.05-58.09 49.05-32.08 0-58.09-21.96-58.09-49.05 0-27.09 26.01-49.05 58.09-49.05 32.08 0 58.09 21.96 58.09 49.05z" transform="matrix(0.17610172,0,0,0.16864808,43.672328,442.96169)" style="fill:url(#radialGradient5827);opacity:0.3"/><path id="path5833" d="m108.43-156.35c0 27.09-21.96 49.05-49.05 49.05-27.09 0-49.05-21.96-49.05-49.05 0-27.09 21.96-49.05 49.05-49.05 27.09 0 49.05 21.96 49.05 49.05z" transform="matrix(0.17610172,0,0,0.16864808,68.221658,434.90726)" style="fill:url(#radialGradient5845);opacity:0.3"/><path id="path5847" d="m316.24-22.11c0 39.21-14.16 70.99-31.62 70.99-17.47 0-31.62-31.78-31.62-70.99 0-39.21 14.16-70.99 31.62-70.99 17.47 0 31.62 31.78 31.62 70.99z" transform="matrix(0.17610172,0,0,0.16864808,6.6210247,413.57387)" style="fill:url(#radialGradient5855);opacity:0.3"/><path id="path5865" d="m314.95-94.4c0 50.27-15.31 91.02-34.21 91.02-18.89 0-34.21-40.75-34.21-91.02 0-50.27 15.31-91.02 34.21-91.02 18.89 0 34.21 40.75 34.21 91.02z" transform="matrix(0.17610172,0,0,0.27789414,41.853859,423.60528)" style="fill:url(#radialGradient5881);opacity:0.3"/><path id="path5909" d="m-45.18-163.45c0 27.45-22.54 49.7-50.34 49.7-27.8 0-50.34-22.25-50.34-49.7 0-27.45 22.54-49.7 50.34-49.7 27.8 0 50.34 22.25 50.34 49.7z" transform="matrix(0.17610172,0,0,0.16864808,50.946204,431.42425)" style="fill:url(#radialGradient5921);opacity:0.5"/><path id="path5949" d="m-55.5-162.81c0 16.4-13 29.69-29.04 29.69-16.04 0-29.04-13.29-29.04-29.69 0-16.4 13-29.69 29.04-29.69 16.04 0 29.04 13.29 29.04 29.69z" transform="matrix(0.17610172,0,0,0.16864808,49.127735,430.98888)" style="fill:url(#radialGradient3843);opacity:0.7"/></g></svg>