<?xml version="1.0" encoding="UTF-8" standalone="no"?>
<!-- Created with Inkscape (http://www.inkscape.org/) -->

<svg
   xmlns:dc="http://purl.org/dc/elements/1.1/"
   xmlns:cc="http://creativecommons.org/ns#"
   xmlns:rdf="http://www.w3.org/1999/02/22-rdf-syntax-ns#"
   xmlns:svg="http://www.w3.org/2000/svg"
   xmlns="http://www.w3.org/2000/svg"
   xmlns:sodipodi="http://sodipodi.sourceforge.net/DTD/sodipodi-0.dtd"
   xmlns:inkscape="http://www.inkscape.org/namespaces/inkscape"
   width="302.3125"
   height="561.40125"
   id="svg2"
   version="1.1"
   inkscape:version="0.48.2 r9819"
   sodipodi:docname="scroll down.svg"
   inkscape:export-filename="/Users/arturios/Desktop/scroll down.png"
   inkscape:export-xdpi="19.57"
   inkscape:export-ydpi="19.57">
  <defs
     id="defs4" />
  <sodipodi:namedview
     id="base"
     pagecolor="#ffffff"
     bordercolor="#666666"
     borderopacity="1.0"
     inkscape:pageopacity="0.0"
     inkscape:pageshadow="2"
     inkscape:zoom="1.26"
     inkscape:cx="-272.28091"
     inkscape:cy="203.27848"
     inkscape:document-units="px"
     inkscape:current-layer="layer1"
     showgrid="true"
     inkscape:window-width="1996"
     inkscape:window-height="1203"
     inkscape:window-x="0"
     inkscape:window-y="0"
     inkscape:window-maximized="0"
     fit-margin-top="4"
     fit-margin-left="4"
     fit-margin-right="4"
     fit-margin-bottom="4">
    <inkscape:grid
       type="xygrid"
       id="grid2985"
       empspacing="5"
       visible="true"
       enabled="true"
       snapvisiblegridlinesonly="true" />
  </sodipodi:namedview>
  <metadata
     id="metadata7">
    <rdf:RDF>
      <cc:Work
         rdf:about="">
        <dc:format>image/svg+xml</dc:format>
        <dc:type
           rdf:resource="http://purl.org/dc/dcmitype/StillImage" />
        <dc:title />
      </cc:Work>
    </rdf:RDF>
  </metadata>
  <g
     inkscape:label="Capa 1"
     inkscape:groupmode="layer"
     id="layer1"
     transform="translate(-163.84375,-56.960915)">
    <path
       style="fill:#cccccc;fill-opacity:1;stroke:#888888;stroke-width:4;stroke-linecap:butt;stroke-linejoin:miter;stroke-miterlimit:4;stroke-opacity:1;stroke-dasharray:none"
       d="M 312.0625,62.96875 C 249.82456,63.71097 187.72973,104.70626 172.875,172.375 c -1.73516,8.71104 -2.77094,21.26216 -2.78125,29.3125 -0.26675,63.88691 -0.0987,130.6875 -0.25,190.6875 0.0103,8.05035 1.0461,20.63272 2.78125,29.34375 11.48329,52.31062 51.19841,88.67795 97.375,102.84375 l 0,-10.28125 c -41.24927,-14.32976 -76.31931,-48.6833 -86.65625,-97.5625 -1.60445,-8.36119 -2.58405,-20.4292 -2.59375,-28.15625 -0.76457,-61.1875 -0.75718,-116.1875 0.25,-183.03125 0.01,-7.72704 0.98928,-19.79505 2.59375,-28.15625 13.73581,-64.95112 71.13756,-104.28758 128.6875,-105 0.91349,-0.0113 1.80535,-0.008 2.71875,0 58.53273,-0.63113 117.65289,38.96279 131.625,105.03125 1.60445,8.3612 2.58424,20.42921 2.59375,28.15625 C 450.01338,267.375 450.00693,327.375 449,388.59375 448.99,396.3208 448.0107,408.3888 446.40625,416.75 436.9351,461.53524 406.72236,494.11874 370,510.28125 l 0,10.75 c 41.71177,-16.14029 76.50111,-50.88552 87.125,-99.28125 1.73515,-8.71104 2.77095,-21.2934 2.78125,-29.34375 -0.11643,-64.97925 0.0984,-125.03125 0.25,-190.6875 -0.0103,-8.05034 -1.0461,-20.60146 -2.78125,-29.3125 C 442.26471,103.57343 378.30078,62.31121 315,62.96875 c -0.98781,-0.009 -1.94959,-0.0118 -2.9375,0 z"
       id="path3019"
       inkscape:export-filename="/Users/arturios/Desktop/scroll down.png"
       inkscape:export-xdpi="9.79"
       inkscape:export-ydpi="9.79"
       inkscape:connector-curvature="0" />
    <rect
       style="fill:#cccccc;fill-opacity:1;fill-rule:evenodd;stroke:#888888;stroke-width:4;stroke-linecap:butt;stroke-linejoin:miter;stroke-miterlimit:4;stroke-opacity:1;stroke-dasharray:none"
       id="rect3039"
       width="30"
       height="90"
       x="300"
       y="102.36218"
       ry="15"
       inkscape:export-filename="/Users/arturios/Desktop/scroll down.png"
       inkscape:export-xdpi="9.79"
       inkscape:export-ydpi="9.79" />
    <rect
       style="fill:#cccccc;fill-opacity:1;fill-rule:evenodd;stroke:#888888;stroke-width:4;stroke-linecap:butt;stroke-linejoin:miter;stroke-miterlimit:4;stroke-opacity:1;stroke-dasharray:none"
       id="rect3044"
       width="80"
       height="20"
       x="280"
       y="402.36218"
       ry="0"
       inkscape:export-filename="/Users/arturios/Desktop/scroll down.png"
       inkscape:export-xdpi="9.79"
       inkscape:export-ydpi="9.79" />
    <rect
       ry="0"
       y="432.36218"
       x="280"
       height="20"
       width="80"
       id="rect3049"
       style="fill:#cccccc;fill-opacity:1;fill-rule:evenodd;stroke:#888888;stroke-width:4;stroke-linecap:butt;stroke-linejoin:miter;stroke-miterlimit:4;stroke-opacity:1;stroke-dasharray:none"
       inkscape:export-filename="/Users/arturios/Desktop/scroll down.png"
       inkscape:export-xdpi="9.79"
       inkscape:export-ydpi="9.79" />
    <rect
       style="fill:#cccccc;fill-opacity:1;fill-rule:evenodd;stroke:#888888;stroke-width:4;stroke-linecap:butt;stroke-linejoin:miter;stroke-miterlimit:4;stroke-opacity:1;stroke-dasharray:none"
       id="rect3051"
       width="80"
       height="20"
       x="280"
       y="462.36218"
       ry="0"
       inkscape:export-filename="/Users/arturios/Desktop/scroll down.png"
       inkscape:export-xdpi="9.79"
       inkscape:export-ydpi="9.79" />
    <path
       style="fill:#cccccc;fill-opacity:1;fill-rule:evenodd;stroke:#888888;stroke-width:4;stroke-linecap:butt;stroke-linejoin:miter;stroke-miterlimit:4;stroke-opacity:1;stroke-dasharray:none"
       d="m 280,492.375 0,51.42308 -30,0 70,68.5641 70,-68.5641 -30,0 0,-51.42308 -80,0 z"
       id="rect3053"
       inkscape:connector-curvature="0"
       inkscape:export-filename="/Users/arturios/Desktop/scroll down.png"
       inkscape:export-xdpi="9.79"
       inkscape:export-ydpi="9.79" />
  </g>
</svg>
